# AST/ASF file generated using VICON BodyLanguage
# -----------------------------------------------
:version 1.10
:name VICON
:units
  mass 1.0
  length 0.45
  angle deg
:documentation
   .ast/.asf automatically generated from VICON data using
   VICON BodyBuilder and BodyLanguage model FoxedUp or BRILLIANT.MOD
:root
   order TX TY TZ RX RY RZ
   axis XYZ
   position 0 0 0  
   orientation 0 0 0 
:bonedata
  begin
     id 1 
     name lhipjoint
     direction 0.575328 -0.747301 0.332475 
     length 2.40933 
     axis 0 0 0  XYZ
  end
  begin
     id 2 
     name lfemur
     direction 0.34202 -0.939693 0  
     length 7.31453  
     axis 0 0 20  XYZ
    dof rx ry rz
    limits (-160.0 20.0)
           (-70.0 70.0)
           (-60.0 70.0)
  end
  begin
     id 3 
     name ltibia
     direction 0.34202 -0.939693 0   
     length 7.82185   
     axis 0 0 20   XYZ
    dof rx
    limits (-10.0 170.0)
  end
  begin
     id 4 
     name lfoot
     direction 0.0795993 -0.218697 0.972541   
     length 2.19173   
     axis -90 7.62852e-016 20   XYZ
    dof rx rz
    limits (-45.0 90.0)
           (-70.0 20.0)
  end
  begin
     id 5 
     name ltoes
     direction 1.53537e-011 -4.21894e-011 1   
     length 1.10023   
     axis -90 7.62852e-016 20   XYZ
    dof rx
    limits (-90.0 20.0)
  end
  begin
     id 6 
     name rhipjoint
     direction -0.513884 -0.783789 0.348708   
     length 2.29716  
     axis 0 0 0  XYZ 
  end
  begin
     id 7 
     name rfemur
     direction -0.34202 -0.939693 0   
     length 7.59573   
     axis 0 0 -20   XYZ
    dof rx ry rz
    limits (-160.0 20.0)
           (-70.0 70.0)
           (-70.0 60.0)
  end
  begin
     id 8 
     name rtibia
     direction -0.34202 -0.939693 0   
     length 7.66402   
     axis 0 0 -20   XYZ
    dof rx
    limits (-10.0 170.0)
 end
 begin
     id 9 
     name rfoot
     direction -0.137793 -0.378584 0.915253   
     length 2.27056  
     axis -90 -7.62852e-016 -20   XYZ
    dof rx rz
    limits (-45.0 90.0)
           (-20.0 70.0)
  end
  begin
     id 10 
     name rtoes
     direction -1.53493e-011 -4.22159e-011 1   
     length 1.11766   
     axis -90 -7.62852e-016 -20   XYZ
    dof rx
    limits (-90.0 20.0)
  end
  begin
     id 11 
     name lowerback
     direction -0.00732775 0.998356 -0.05685   
     length 2.16513   
     axis 0 0 0   XYZ
    dof rx ry rz
    limits (-20.0 45.0)
           (-30.0 30.0)
           (-30.0 30.0)
  end
  begin
     id 12 
     name upperback
     direction 0.0218081 0.999627 -0.0164647   
     length 2.16755   
     axis 0 0 0   XYZ
    dof rx ry rz
    limits (-20.0 45.0)
           (-30.0 30.0)
           (-30.0 30.0)
  end
  begin
     id 13 
     name thorax
     direction 0.02365 0.999661 0.0108914   
     length 2.16932   
     axis 0 0 0   XYZ
    dof rx ry rz
    limits (-20.0 45.0)
           (-30.0 30.0)
           (-30.0 30.0)
  end
  begin
     id 14 
     name lowerneck
     direction -0.0523929 0.978385 0.200044   
     length 1.63877   
     axis 0 0 0   XYZ
    dof rx ry rz
    limits (-20.0 45.0)
           (-30.0 30.0)
           (-30.0 30.0)
  end
  begin
     id 15 
     name upperneck
     direction 0.0448674 0.981321 -0.187074   
     length 1.69014   
     axis 0 0 0   XYZ
    dof rx ry rz
    limits (-20.0 45.0)
           (-30.0 30.0)
           (-30.0 30.0)
  end
  begin
     id 16
     name head
     direction 0.0199089 0.996118 -0.0857429  
     length 1.70094  
     axis 0 0 0   XYZ
    dof rx ry rz
    limits (-20.0 45.0)
           (-30.0 30.0)
           (-30.0 30.0)
  end
  begin
     id 17 
     name lclavicle
     direction 0.940366 0.30191 -0.156722  
     length 3.37521  
     axis 0 0 0   XYZ
    dof ry rz
    limits (-20.0 10.0)
           (0.0 20.0)
  end
  begin
     id 18 
     name lhumerus
     direction 1 -4.4897e-011 -1.7911e-027   
     length 5.25287   
     axis 180 -30 -90   XYZ
    dof rx ry rz
    limits (-60.0 90.0)
           (-90.0 90.0)
           (-90.0 90.0)
  end
  begin
     id 19
     name lradius
     direction 1 -4.48951e-011 1.04424e-027   
     length 3.51014   
     axis 180 -30 -90   XYZ
    dof rx
    limits (-10.0 170.0)
  end
  begin
     id 20
     name lwrist
     direction 1 -4.48997e-011 -9.5942e-028   
     length 1.75507   
     axis 8.48502e-016 90 90   XYZ
    dof ry
    limits (-180.0 0.0)
 end
  begin
     id 21 
     name lhand
     direction 1 -4.48831e-011 -1.90777e-027   
     length 0.706179   
     axis 1.22306e-015 90 90   XYZ
    dof rx rz
    limits (-90.0 90.0)
           (-45.0 45.0)
  end
  begin
     id 22 
     name lfingers
     direction 1 -4.49108e-011 -3.85244e-027   
     length 0.569339   
     axis 2.44611e-015 90 90   XYZ
    dof rx
    limits (0.0 90.0)
  end
  begin
     id 23
     name lthumb
     direction 0.707107 -6.34953e-011 0.707107   
     length 0.817461   
     axis -90 45 -1.62303e-014   XYZ
    dof rx rz
    limits (-45.0 45.0)
           (-45.0 45.0)
  end
  begin
     id 24 
     name rclavicle
     direction -0.905329 0.382405 -0.184787   
     length 3.30787  
     axis 0 0 0   XYZ 
    dof ry rz
    limits (-10.0 20.0)
           (-20.0 0.0)
  end
  begin
     id 25 
     name rhumerus
     direction -1 -4.48953e-011 -9.15316e-029  
     length 5.28721   
     axis 180 30 90   XYZ
    dof rx ry rz
    limits (-90.0 60.0)
           (-90.0 90.0)
           (-90.0 90.0)
  end
  begin
     id 26 
     name rradius
     direction -1 -4.48987e-011 9.37824e-028   
     length 3.50544   
     axis 180 30 90   XYZ
    dof rx
    limits (-10.0 170.0)
  end
  begin
     id 27 
     name rwrist
     direction -1 -4.48967e-011 -9.58414e-028   
     length 1.75272   
     axis 8.48502e-016 -90 -90   XYZ
    dof ry
    limits (-180.0 0.0)
  end
  begin
     id 28
     name rhand
     direction -1 -4.48904e-011 -1.91266e-027   
     length 0.884996   
     axis 1.22306e-015 -90 -90   XYZ
    dof rx rz
    limits (-90.0 90.0)
           (-45.0 45.0)
  end
  begin
     id 29
     name rfingers
     direction -1 -4.4909e-011 -3.85015e-027   
     length 0.713507   
     axis 2.44611e-015 -90 -90   XYZ
    dof rx
    limits (0.0 90.0)
  end
  begin
     id 30
     name rthumb
     direction -0.707107 -6.34853e-011 0.707107   
     length 1.02446   
     axis -90 -45 1.62303e-014   XYZ
    dof rx rz
    limits (-45.0 45.0)
           (-45.0 45.0)
  end
:hierarchy
  begin
    root lhipjoint rhipjoint lowerback
    lhipjoint lfemur
    lfemur ltibia
    ltibia lfoot
    lfoot ltoes
    rhipjoint rfemur
    rfemur rtibia
    rtibia rfoot
    rfoot rtoes
    lowerback upperback
    upperback thorax
    thorax lowerneck lclavicle rclavicle
    lowerneck upperneck
    upperneck head
    lclavicle lhumerus
    lhumerus lradius
    lradius lwrist
    lwrist lhand lthumb
    lhand lfingers
    rclavicle rhumerus
    rhumerus rradius
    rradius rwrist
    rwrist rhand rthumb
    rhand rfingers
  end

#!OML:ASF F:\twosubjects\two\Thursday\Session 1\justin.ASF
:FULLY-SPECIFIED
:DEGREES
80
root 8.66607 18.231 2.12921 -167.606 -18.235 -180.14
lowerback 1.99569 1.57538 -4.48715
upperback 3.1006 1.97017 0.473325
thorax 1.9024 0.843172 2.99055
lowerneck -17.3044 -1.45285 -12.1251
upperneck 33.7962 -0.181606 -0.606211
head 14.6709 -2.47325 1.61484
rclavicle 4.14404e-014 -1.58034e-014
rhumerus 39.0329 -9.12572 -61.3347
rradius 66.7415
rwrist 6.44553
rhand -21.3593 15.0012
rfingers 7.12502
rthumb 5.02746 -14.9192
lclavicle 4.14404e-014 -1.58034e-014
lhumerus -30.2267 2.03705 82.401
lradius 50.8795
lwrist 0.560741
lhand -4.7634 35.8946
lfingers 7.12502
lthumb 21.0207 64.7754
rfemur -19.2245 -10.3834 20.3751
rtibia 35.0351
rfoot -23.6627 -11.9577
rtoes -9.0427
lfemur -17.1314 4.83179 -17.6475
ltibia 17.9451
lfoot -10.9784 -4.42845
ltoes -11.0437
81
root 8.61749 18.2302 2.13961 -167.579 -18.1895 -180.514
lowerback 2.02009 1.63183 -4.68031
upperback 3.06656 2.04451 0.290266
thorax 1.8478 0.880158 2.90801
lowerneck -17.2325 -1.62196 -12.2277
upperneck 33.4575 -0.375081 -0.564629
head 14.5161 -2.52649 1.62214
rclavicle -3.11843e-014 2.80535e-014
rhumerus 38.7377 -9.30713 -61.0282
rradius 66.515
rwrist 6.19902
rhand -21.1889 14.2801
rfingers 7.12502
rthumb 5.19198 -15.6363
lclavicle -3.11843e-014 2.80535e-014
lhumerus -30.01 2.13049 82.1832
lradius 51.0417
lwrist 0.524395
lhand -4.71282 36.0947
lfingers 7.12502
lthumb 21.0693 64.9701
rfemur -19.4431 -10.7505 19.7631
rtibia 35.654
rfoot -23.7653 -11.4878
rtoes -9.75333
lfemur -17.016 5.16693 -18.2668
ltibia 17.929
lfoot -10.9458 -4.92759
ltoes -10.9185
82
root 8.57606 18.2288 2.14264 -167.744 -18.1145 -180.638
lowerback 2.04142 1.54764 -4.84464
upperback 3.08916 1.9286 0.28389
thorax 1.86459 0.817154 2.99443
lowerneck -17.1102 -1.73371 -12.4563
upperneck 33.0582 -0.444008 -0.590593
head 14.319 -2.55477 1.64326
rclavicle 2.54475e-014 2.3761e-014
rhumerus 39.432 -9.19138 -61.5858
rradius 65.9457
rwrist 6.59885
rhand -21.1151 13.7257
rfingers 7.12502
rthumb 5.26319 -16.189
lclavicle 2.54475e-014 2.3761e-014
lhumerus -29.9932 2.71014 81.9215
lradius 51.2452
lwrist 0.64769
lhand -4.81697 36.0454
lfingers 7.12502
lthumb 20.9693 64.9319
rfemur -19.5646 -11.1245 19.4333
rtibia 36.3208
rfoot -23.6498 -11.0499
rtoes -10.2425
lfemur -16.7554 5.5432 -18.5708
ltibia 17.9288
lfoot -10.962 -5.29944
ltoes -11.1727
83
root 8.53336 18.2314 2.15184 -167.673 -18.0751 -180.527
lowerback 1.72139 1.78252 -4.59502
upperback 3.03863 2.26706 0.0784228
thorax 1.97896 0.99397 2.64897
lowerneck -16.4344 -2.1189 -11.9878
upperneck 32.2889 -1.17226 -0.685037
head 13.87 -2.74742 1.42311
rclavicle 2.91406e-014 -6.43565e-015
rhumerus 38.9433 -9.94834 -61.6673
rradius 65.6549
rwrist 6.17889
rhand -21.3245 14.1477
rfingers 7.12502
rthumb 5.06108 -15.7718
lclavicle 2.91406e-014 -6.43565e-015
lhumerus -29.7074 1.92346 81.708
lradius 51.3957
lwrist 1.08045
lhand -5.30626 36.0898
lfingers 7.12502
lthumb 20.4991 65.0276
rfemur -20.0177 -11.5655 19.4081
rtibia 36.9959
rfoot -23.3441 -10.528
rtoes -9.06525
lfemur -16.8805 5.64677 -18.6331
ltibia 17.9644
lfoot -11.1564 -5.33748
ltoes -11.076
84
root 8.48642 18.2428 2.16356 -167.461 -18.0285 -180.647
lowerback 1.39104 1.72955 -4.6192
upperback 2.99305 2.21932 0.0369824
thorax 2.12211 0.969763 2.62998
lowerneck -16.1684 -2.23238 -12.1438
upperneck 31.6485 -1.24847 -0.770607
head 13.5446 -2.75807 1.41455
rclavicle -1.75862e-014 -2.39536e-014
rhumerus 38.9349 -9.87521 -61.539
rradius 65.4562
rwrist 5.76712
rhand -21.1955 14.0503
rfingers 7.12502
rthumb 5.18563 -15.8662
lclavicle -1.75862e-014 -2.39536e-014
lhumerus -29.5511 2.21267 81.5371
lradius 51.5234
lwrist 1.2701
lhand -5.64563 36.0764
lfingers 7.12502
lthumb 20.173 65.049
rfemur -20.4771 -12.1023 19.1322
rtibia 37.5368
rfoot -23.0514 -9.91106
rtoes -7.92275
lfemur -17.1711 5.78816 -18.9579
ltibia 18.2274
lfoot -11.4016 -5.61966
ltoes -8.37842
85
root 8.44623 18.2481 2.1733 -167.479 -17.889 -180.971
lowerback 1.56745 1.55715 -4.9706
upperback 2.86118 1.97883 0.0376767
thorax 1.89567 0.851602 2.82053
lowerneck -16.0389 -2.12644 -12.6487
upperneck 31.277 -0.956883 -0.731343
head 13.3497 -2.66468 1.5656
rclavicle 2.72646e-014 -1.44367e-014
rhumerus 38.9961 -9.32001 -61.6729
rradius 65.0554
rwrist 5.73877
rhand -21.2632 14.3302
rfingers 7.12502
rthumb 5.12024 -15.5879
lclavicle 2.72646e-014 -1.44367e-014
lhumerus -29.7638 2.95988 81.2729
lradius 51.5865
lwrist 1.36413
lhand -5.65373 36.1358
lfingers 7.12502
lthumb 20.1652 65.1092
rfemur -20.8257 -12.5858 18.711
rtibia 38.1732
rfoot -22.5149 -10.0789
rtoes -9.69628
lfemur -17.0363 6.23444 -19.4659
ltibia 18.2751
lfoot -11.3259 -6.34392
ltoes -3.76795
86
root 8.4127 18.227 2.18565 -167.591 -17.7705 -181.154
lowerback 1.94243 1.85185 -5.05754
upperback 2.60138 2.34776 -0.264076
thorax 1.39484 1.05589 2.53849
lowerneck -15.712 -2.44644 -12.5076
upperneck 31.2491 -1.59726 -0.480578
head 13.3074 -2.88322 1.54394
rclavicle 5.74239e-014 9.93923e-015
rhumerus 38.0622 -10.0048 -61.7142
rradius 64.6613
rwrist 5.60912
rhand -21.7426 15.1985
rfingers 7.12502
rthumb 4.65736 -14.7303
lclavicle 5.74239e-014 9.93923e-015
lhumerus -29.7075 2.08381 80.9616
lradius 51.3702
lwrist 1.64555
lhand -5.73739 36.0497
lfingers 7.12502
lthumb 20.0848 65.0316
rfemur -21.3821 -13.2805 18.6647
rtibia 38.7702
rfoot -21.0785 -11.4668
rtoes -18.1714
lfemur -16.8791 6.68399 -19.8051
ltibia 18.2551
lfoot -11.1142 -6.98764
ltoes -1.65286
87
root 8.3751 18.2469 2.19126 -167.622 -17.7092 -181.292
lowerback 1.92811 1.84609 -5.25707
upperback 2.63002 2.33837 -0.246927
thorax 1.4254 1.04563 2.66867
lowerneck -16.1435 -2.70746 -12.6882
upperneck 31.1461 -1.74937 -0.687345
head 13.3765 -2.98072 1.46342
rclavicle 6.08157e-014 -2.08227e-014
rhumerus 38.3133 -10.0165 -61.7453
rradius 64.2421
rwrist 5.0483
rhand -21.8537 15.7869
rfingers 7.12502
rthumb 4.55006 -14.1443
lclavicle 6.08157e-014 -2.08227e-014
lhumerus -29.3893 2.42212 80.8309
lradius 51.2028
lwrist 1.79291
lhand -5.41346 35.7197
lfingers 7.12502
lthumb 20.3961 64.6685
rfemur -21.6172 -13.3669 18.234
rtibia 39.4733
rfoot -21.3701 -10.5234
rtoes -16.0017
lfemur -16.7777 6.96073 -20.1194
ltibia 18.2262
lfoot -11.1089 -7.26298
ltoes -2.21
88
root 8.33317 18.2532 2.19948 -167.615 -17.6762 -181.459
lowerback 1.67882 1.07726 -5.74314
upperback 2.88862 1.32493 0.359927
thorax 1.89715 0.504746 3.58785
lowerneck -17.2157 -2.43279 -14.2165
upperneck 30.6148 -0.497743 -1.132
head 13.3376 -2.64851 1.73037
rclavicle 4.28381e-014 -1.60022e-014
rhumerus 40.3821 -8.05082 -62.0311
rradius 63.6253
rwrist 4.26651
rhand -21.5927 16.4563
rfingers 7.12502
rthumb 4.80208 -13.4692
lclavicle 4.28381e-014 -1.60022e-014
lhumerus -29.4472 5.48132 80.8331
lradius 51.3217
lwrist 1.72745
lhand -5.06395 36.1491
lfingers 7.12502
lthumb 20.732 65.0617
rfemur -21.8688 -13.6206 17.8188
rtibia 40.1339
rfoot -21.4161 -9.8746
rtoes -15.6718
lfemur -16.7004 7.13837 -20.4789
ltibia 18.1963
lfoot -11.3143 -7.36019
ltoes -3.05629
89
root 8.29031 18.2447 2.21191 -167.655 -17.7145 -181.519
lowerback 1.62128 1.26336 -6.04091
upperback 2.15482 1.58493 0.232294
thorax 1.14113 0.683405 3.61334
lowerneck -14.3757 -2.3594 -13.1266
upperneck 29.6567 -1.16728 -1.78499
head 12.3662 -2.86244 1.23208
rclavicle 2.29068e-014 -3.31722e-014
rhumerus 38.5797 -8.21606 -61.8716
rradius 63.4099
rwrist 4.08478
rhand -21.7002 17.0884
rfingers 7.12502
rthumb 4.69825 -12.8395
lclavicle 2.29068e-014 -3.31722e-014
lhumerus -30.7663 4.54495 80.5396
lradius 51.3921
lwrist 2.02524
lhand -5.53421 36.8993
lfingers 7.12502
lthumb 20.2801 65.8605
rfemur -22.1942 -13.7759 17.5533
rtibia 40.8596
rfoot -21.3275 -9.6057
rtoes -15.8633
lfemur -16.5387 7.03978 -20.6872
ltibia 17.9807
lfoot -11.3837 -7.30643
ltoes -3.2306
